<svg fill="none" height="48" viewBox="0 0 188 48" width="188" xmlns="http://www.w3.org/2000/svg" xmlns:xlink="http://www.w3.org/1999/xlink"><filter id="a" color-interpolation-filters="sRGB" filterUnits="userSpaceOnUse" height="54" width="48" x="0" y="-3"><feFlood flood-opacity="0" result="BackgroundImageFix"/><feBlend in="SourceGraphic" in2="BackgroundImageFix" mode="normal" result="shape"/><feColorMatrix in="SourceAlpha" result="hardAlpha" type="matrix" values="0 0 0 0 0 0 0 0 0 0 0 0 0 0 0 0 0 0 127 0"/><feOffset dy="-3"/><feGaussianBlur stdDeviation="1.5"/><feComposite in2="hardAlpha" k2="-1" k3="1" operator="arithmetic"/><feColorMatrix type="matrix" values="0 0 0 0 0 0 0 0 0 0 0 0 0 0 0 0 0 0 0.1 0"/><feBlend in2="shape" mode="normal" result="effect1_innerShadow_3046_38752"/><feColorMatrix in="SourceAlpha" result="hardAlpha" type="matrix" values="0 0 0 0 0 0 0 0 0 0 0 0 0 0 0 0 0 0 127 0"/><feOffset dy="3"/><feGaussianBlur stdDeviation="1.5"/><feComposite in2="hardAlpha" k2="-1" k3="1" operator="arithmetic"/><feColorMatrix type="matrix" values="0 0 0 0 1 0 0 0 0 1 0 0 0 0 1 0 0 0 0.1 0"/><feBlend in2="effect1_innerShadow_3046_38752" mode="normal" result="effect2_innerShadow_3046_38752"/><feColorMatrix in="SourceAlpha" result="hardAlpha" type="matrix" values="0 0 0 0 0 0 0 0 0 0 0 0 0 0 0 0 0 0 127 0"/><feMorphology in="SourceAlpha" operator="erode" radius="1" result="effect3_innerShadow_3046_38752"/><feOffset/><feComposite in2="hardAlpha" k2="-1" k3="1" operator="arithmetic"/><feColorMatrix type="matrix" values="0 0 0 0 0.0627451 0 0 0 0 0.0941176 0 0 0 0 0.156863 0 0 0 0.24 0"/><feBlend in2="effect2_innerShadow_3046_38752" mode="normal" result="effect3_innerShadow_3046_38752"/></filter><filter id="b" color-interpolation-filters="sRGB" filterUnits="userSpaceOnUse" height="42" width="42" x="3" y="5.25"><feFlood flood-opacity="0" result="BackgroundImageFix"/><feColorMatrix in="SourceAlpha" result="hardAlpha" type="matrix" values="0 0 0 0 0 0 0 0 0 0 0 0 0 0 0 0 0 0 127 0"/><feMorphology in="SourceAlpha" operator="erode" radius="1.5" result="effect1_dropShadow_3046_38752"/><feOffset dy="2.25"/><feGaussianBlur stdDeviation="2.25"/><feComposite in2="hardAlpha" operator="out"/><feColorMatrix type="matrix" values="0 0 0 0 0.141176 0 0 0 0 0.141176 0 0 0 0 0.141176 0 0 0 0.1 0"/><feBlend in2="BackgroundImageFix" mode="normal" result="effect1_dropShadow_3046_38752"/><feBlend in="SourceGraphic" in2="effect1_dropShadow_3046_38752" mode="normal" result="shape"/></filter><linearGradient id="c" gradientUnits="userSpaceOnUse" x1="24" x2="26" y1=".000001" y2="48"><stop offset="0" stop-color="#fff" stop-opacity="0"/><stop offset="1" stop-color="#fff" stop-opacity=".12"/></linearGradient><linearGradient id="d" gradientUnits="userSpaceOnUse" x1="24" x2="24" y1="12" y2="36"><stop offset="0" stop-color="#fff" stop-opacity=".8"/><stop offset="1" stop-color="#fff" stop-opacity=".5"/></linearGradient><linearGradient id="e" gradientUnits="userSpaceOnUse" x1="24" x2="24" y1="0" y2="48"><stop offset="0" stop-color="#fff" stop-opacity=".12"/><stop offset="1" stop-color="#fff" stop-opacity="0"/></linearGradient><clipPath id="f"><rect height="48" rx="12" width="48"/></clipPath><g filter="url(#a)"><g clip-path="url(#f)"><rect fill="#444ce7" height="48" rx="12" width="48"/><path d="m0 0h48v48h-48z" fill="url(#c)"/><g clip-rule="evenodd" fill="url(#d)" fill-rule="evenodd" filter="url(#b)"><path d="m31.5 27h-4.7574c-.7956 0-1.5587.3161-2.1213.8787l-1.2426 1.2426c-.5626.5626-1.3257.8787-2.1213.8787h-4.7574c-2.4853 0-4.5-2.0147-4.5-4.5s2.0147-4.5 4.5-4.5h4.7574c.7956 0 1.5587-.3161 2.1213-.8787l1.2426-1.2426c.5626-.5626 1.3257-.8787 2.1213-.8787h4.7574c2.4853 0 4.5 2.0147 4.5 4.5s-2.0147 4.5-4.5 4.5zm-4.7574-6c-.7956 0-1.5587.3161-2.1213.8787l-1.2426 1.2426c-.5626.5626-1.3257.8787-2.1213.8787h-4.7574c-.8284 0-1.5.6716-1.5 1.5s.6716 1.5 1.5 1.5h4.7574c.7956 0 1.5587-.3161 2.1213-.8787l1.2426-1.2426c.5626-.5626 1.3257-.8787 2.1213-.8787h4.7574c.8284 0 1.5-.6716 1.5-1.5s-.6716-1.5-1.5-1.5z"/><path d="m31.5 33h-4.7574c-.7956 0-1.5587.3161-2.1213.8787l-1.2426 1.2426c-.5626.5626-1.3257.8787-2.1213.8787h-4.7574c-5.799 0-10.5-4.701-10.5-10.5s4.701-10.5 10.5-10.5h4.7574c.7956 0 1.5587-.3161 2.1213-.8787l1.2426-1.2426c.5626-.5626 1.3257-.8787 2.1213-.8787h4.7574c5.799 0 10.5 4.701 10.5 10.5s-4.701 10.5-10.5 10.5zm-4.7574-18c-.7956 0-1.5587.3161-2.1213.8787l-1.2426 1.2426c-.5626.5626-1.3257.8787-2.1213.8787h-4.7574c-4.1421 0-7.5 3.3579-7.5 7.5s3.3579 7.5 7.5 7.5h4.7574c.7956 0 1.5587-.3161 2.1213-.8787l1.2426-1.2426c.5626-.5626 1.3257-.8787 2.1213-.8787h4.7574c4.1421 0 7.5-3.3579 7.5-7.5s-3.3579-7.5-7.5-7.5z"/></g></g><rect height="46" rx="11" stroke="url(#e)" stroke-width="2" width="46" x="1" y="1"/></g><g fill="#0c111d"><path d="m60 33v-18.522h14.796v3.294h-10.746v4.131h9.504v3.267h-9.504v4.509h10.908v3.321z"/><path d="m77.0267 37.806v-19.008h3.078l.324 1.917h.189c.468-.774 1.08-1.341 1.836-1.701s1.593-.54 2.511-.54c1.188 0 2.205.261 3.051.783.864.522 1.521 1.332 1.971 2.43.468 1.098.702 2.511.702 4.239 0 1.674-.234 3.06-.702 4.158s-1.125 1.917-1.971 2.457c-.828.522-1.8.783-2.916.783-.612 0-1.179-.072-1.701-.216-.522-.126-.99-.333-1.404-.621s-.765-.639-1.053-1.053h-.162v6.372zm6.777-7.56c.756 0 1.35-.144 1.782-.432.45-.306.774-.756.972-1.35.198-.612.297-1.359.297-2.241v-.621c0-.9-.099-1.647-.297-2.241-.198-.612-.522-1.062-.972-1.35-.432-.306-1.026-.459-1.782-.459-.702 0-1.278.162-1.728.486s-.783.792-.999 1.404-.324 1.35-.324 2.214v.459c0 .63.063 1.206.189 1.728.126.504.306.936.54 1.296.252.36.567.639.945.837.378.18.837.27 1.377.27z"/><path d="m92.3734 33v-19.521h3.753v6.885h.189c.306-.378.666-.702 1.08-.972.432-.288.909-.513 1.431-.675.54-.162 1.125-.243 1.7546-.243.936 0 1.755.171 2.457.513s1.242.882 1.62 1.62c.396.738.594 1.701.594 2.889v9.504h-3.753v-8.91c0-.45-.054-.828-.162-1.134-.108-.324-.27-.585-.486-.783-.198-.216-.45-.369-.756-.459-.3056-.09-.6476-.135-1.0256-.135-.558 0-1.062.135-1.512.405s-.801.639-1.053 1.107-.378 1.008-.378 1.62v8.289z"/><path d="m113.989 33.324c-1.566 0-2.88-.261-3.942-.783-1.062-.54-1.863-1.359-2.403-2.457s-.81-2.493-.81-4.185c0-1.71.27-3.105.81-4.185.54-1.098 1.332-1.908 2.376-2.43 1.062-.54 2.358-.81 3.888-.81 1.44 0 2.655.261 3.645.783.99.504 1.737 1.296 2.241 2.376.504 1.062.756 2.439.756 4.131v.972h-9.909c.036.828.162 1.53.378 2.106.234.576.585 1.008 1.053 1.296.486.27 1.125.405 1.917.405.432 0 .819-.054 1.161-.162.36-.108.666-.27.918-.486s.45-.486.594-.81.216-.693.216-1.107h3.672c0 .9-.162 1.683-.486 2.349s-.774 1.224-1.35 1.674c-.576.432-1.269.765-2.079.999-.792.216-1.674.324-2.646.324zm-3.294-8.964h5.994c0-.54-.072-1.008-.216-1.404-.126-.396-.306-.72-.54-.972s-.522-.432-.864-.54c-.324-.126-.693-.189-1.107-.189-.684 0-1.26.117-1.728.351-.45.216-.801.558-1.053 1.026-.234.45-.396 1.026-.486 1.728z"/><path d="m122.223 33v-14.202h3.105l.297 1.944h.189c.306-.468.666-.873 1.08-1.215.432-.342.909-.603 1.431-.783.54-.18 1.116-.27 1.728-.27.9 0 1.674.18 2.322.54.666.36 1.179.936 1.539 1.728h.189c.306-.468.675-.873 1.107-1.215s.927-.603 1.485-.783 1.152-.27 1.782-.27c.9 0 1.674.162 2.322.486.666.324 1.188.855 1.566 1.593.378.72.567 1.656.567 2.808v9.639h-3.753v-8.964c0-.45-.054-.828-.162-1.134-.09-.324-.225-.576-.405-.756-.18-.198-.405-.342-.675-.432s-.558-.135-.864-.135c-.504 0-.954.135-1.35.405s-.711.639-.945 1.107c-.216.468-.324 1.008-.324 1.62v8.289h-3.753v-8.964c0-.45-.054-.828-.162-1.134-.09-.324-.225-.576-.405-.756-.18-.198-.405-.342-.675-.432-.252-.09-.54-.135-.864-.135-.486 0-.936.135-1.35.405-.396.27-.711.639-.945 1.107-.216.468-.324 1.008-.324 1.62v8.289z"/><path d="m151.643 33.324c-1.566 0-2.88-.261-3.942-.783-1.062-.54-1.863-1.359-2.403-2.457s-.81-2.493-.81-4.185c0-1.71.27-3.105.81-4.185.54-1.098 1.332-1.908 2.376-2.43 1.062-.54 2.358-.81 3.888-.81 1.44 0 2.655.261 3.645.783.99.504 1.737 1.296 2.241 2.376.504 1.062.756 2.439.756 4.131v.972h-9.909c.036.828.162 1.53.378 2.106.234.576.585 1.008 1.053 1.296.486.27 1.125.405 1.917.405.432 0 .819-.054 1.161-.162.36-.108.666-.27.918-.486s.45-.486.594-.81.216-.693.216-1.107h3.672c0 .9-.162 1.683-.486 2.349s-.774 1.224-1.35 1.674c-.576.432-1.269.765-2.079.999-.792.216-1.674.324-2.646.324zm-3.294-8.964h5.994c0-.54-.072-1.008-.216-1.404-.126-.396-.306-.72-.54-.972s-.522-.432-.864-.54c-.324-.126-.693-.189-1.107-.189-.684 0-1.26.117-1.728.351-.45.216-.801.558-1.053 1.026-.234.45-.396 1.026-.486 1.728z"/><path d="m159.878 33v-14.202h3.105l.297 2.214h.189c.18-.468.414-.891.702-1.269.288-.396.648-.711 1.08-.945s.936-.351 1.512-.351c.306 0 .585.036.837.108.252.054.441.108.567.162v3.402h-1.161c-.558 0-1.053.081-1.485.243-.414.144-.765.378-1.053.702s-.504.72-.648 1.188c-.126.468-.189 1.017-.189 1.647v7.101z"/><path d="m172.544 33.324c-.468 0-.972-.054-1.512-.162-.522-.108-1.017-.297-1.485-.567-.468-.288-.855-.693-1.161-1.215-.288-.54-.432-1.224-.432-2.052 0-.99.216-1.809.648-2.457s1.044-1.152 1.836-1.512c.81-.378 1.773-.639 2.889-.783s2.349-.216 3.699-.216v-1.053c0-.414-.072-.774-.216-1.08-.126-.306-.36-.549-.702-.729-.324-.18-.783-.27-1.377-.27s-1.08.072-1.458.216c-.36.144-.621.333-.783.567-.144.216-.216.459-.216.729v.324h-3.645c-.018-.09-.027-.171-.027-.243 0-.09 0-.198 0-.324 0-.828.252-1.539.756-2.133.504-.612 1.215-1.08 2.133-1.404s1.989-.486 3.213-.486c1.314 0 2.412.171 3.294.513.9.342 1.584.846 2.052 1.512.486.666.729 1.503.729 2.511v6.453c0 .324.09.567.27.729.198.144.414.216.648.216h.891v2.457c-.18.09-.459.18-.837.27-.378.108-.837.162-1.377.162-.522 0-.99-.081-1.404-.243-.396-.144-.729-.351-.999-.621-.27-.288-.459-.63-.567-1.026h-.189c-.306.378-.684.711-1.134.999-.432.288-.945.513-1.539.675-.576.162-1.242.243-1.998.243zm1.269-2.835c.504 0 .954-.072 1.35-.216.396-.162.729-.369.999-.621.27-.27.477-.594.621-.972.162-.378.243-.783.243-1.215v-.783c-1.008 0-1.908.072-2.7.216-.792.126-1.422.351-1.89.675-.45.324-.675.774-.675 1.35 0 .324.081.603.243.837s.396.414.702.54.675.189 1.107.189z"/><path d="m183.373 33v-19.521h3.753v19.521z"/></g></svg>